<svg id="Layer_1" enable-background="new 0 0 512 512" height="512" viewBox="0 0 512 512" width="512" xmlns="http://www.w3.org/2000/svg"><g><path d="m432.733 415.6h-353.466c-7.518 0-13.875-5.565-14.869-13.018l-32.133-241c-.779-5.838 1.932-11.592 6.93-14.71 4.997-3.117 11.357-3.021 16.258.247l86.168 57.446 103.771-103.771c5.857-5.858 15.355-5.858 21.213 0l103.771 103.771 86.168-57.446c4.899-3.268 11.259-3.363 16.259-.247 4.998 3.118 7.708 8.871 6.93 14.71l-32.133 241c-.992 7.453-7.349 13.018-14.867 13.018z" fill="#ffcb00"/><path d="m447.602 402.583 32.133-241c.778-5.839-1.932-11.592-6.93-14.71-5-3.117-11.359-3.021-16.259.247l-86.168 57.446-103.772-103.773c-2.928-2.929-6.767-4.393-10.606-4.393v319.2h176.733c7.518 0 13.875-5.565 14.869-13.017z" fill="#ff9d21"/><path d="m64.267 401.597v63.269c0 8.284 6.716 15 15 15h353.467c8.284 0 15-6.716 15-15v-63.269z" fill="#ffe705"/><path d="m447.733 464.867v-63.269h-191.733v78.269h176.733c8.285 0 15-6.716 15-15z" fill="#ffcb00"/><path d="m256 351.333c-3.979 0-7.794-1.581-10.607-4.394l-25.481-25.481c-18.377-18.378-18.377-48.281 0-66.658l25.485-25.477c5.857-5.853 15.35-5.854 21.207 0l25.484 25.477c18.405 18.404 18.438 48.22 0 66.658l-25.481 25.481c-2.813 2.814-6.628 4.394-10.607 4.394z" fill="#d0004f"/><circle cx="47.133" cy="127.467" fill="#ff9d21" r="47.133"/><path d="m464.866 174.6c-25.989 0-47.133-21.144-47.133-47.133s21.144-47.133 47.133-47.133 47.134 21.144 47.134 47.133-21.145 47.133-47.134 47.133z" fill="#ff8659"/><ellipse cx="256" cy="79.267" fill="#ff9d21" rx="47.133" ry="47.133" transform="matrix(.924 -.383 .383 .924 -10.847 104.001)"/><path d="m292.088 321.458c18.438-18.438 18.405-48.255 0-66.658l-25.484-25.477c-2.929-2.927-6.766-4.39-10.604-4.39v126.4c3.979 0 7.794-1.581 10.606-4.394z" fill="#b10f61"/><path d="m303.134 79.267c0-25.989-21.145-47.133-47.134-47.133v94.266c25.989 0 47.134-21.144 47.134-47.133z" fill="#ff8659"/></g></svg>